# File created by Blade
# Date/Time:  Tue Apr 07 20:49:23 2015
# Frame Rate: 120.000 fps
#------------------------------------------------------
:FULLY-SPECIFIED
:DEGREES
859
root -0.119853 33.705787 -6.335874 7.105968 51.999912 -103.628407
Spine -48.427888 -10.358353 34.209811
Head -19.308704 38.280437 28.104679
LeftShoulder -26.607212 37.653587 29.832016
LeftArm 75.142365 -70.005847 -69.904268
LeftForeArm 15.796261 -0.000000 8.573318
LeftHand 7.715698 -0.000000 15.972969
LeftHandThumb1 -26.253704 0.000000 33.147579
RightShoulder -24.129139 -4.634833 -29.499663
RightArm -22.630441 37.770125 20.569804
RightForeArm 57.268173 -0.000000 -1.572876
RightHand 3.503238 -0.000000 11.830311
RightHandThumb1 -24.326973 -0.000000 -32.862282
LeftUpLeg -96.407789 42.635427 15.701799
LeftLeg -16.596912 -0.000000 0.000000
LeftFoot 11.626716 20.793014 3.467012
LeftToeBase -11.311237 -0.000000 0.000000
RightUpLeg 34.276306 21.211395 -15.660580
RightLeg 56.948893 -0.000000 -0.000000
RightFoot 54.724286 11.142502 0.241572
RightToeBase 7.103861 -0.000000 -0.000000
860
root -0.142342 33.700612 -6.354874 7.354951 52.032256 -103.324021
Spine -48.274972 -10.337841 34.070306
Head -19.496808 38.367530 27.983891
LeftShoulder -26.677954 37.642973 29.827707
LeftArm 75.441583 -70.176581 -70.254753
LeftForeArm 15.868589 -0.000000 8.844179
LeftHand 7.660133 0.000000 16.087903
LeftHandThumb1 -26.253704 0.000000 33.147579
RightShoulder -24.153430 -4.644556 -29.505447
RightArm -22.820040 37.933776 20.517020
RightForeArm 57.218516 -0.000000 -1.515127
RightHand 3.542176 -0.000000 11.800129
RightHandThumb1 -24.326973 -0.000000 -32.862282
LeftUpLeg -96.123741 42.630614 15.956671
LeftLeg -16.663007 -0.000000 0.000000
LeftFoot 11.738563 20.933850 3.835889
LeftToeBase -11.203728 -0.000000 0.000000
RightUpLeg 34.295141 21.273430 -15.702533
RightLeg 57.035743 -0.000000 -0.000000
RightFoot 54.799475 11.203748 0.274852
RightToeBase 7.196280 -0.000000 -0.000000
861
root -0.162320 33.695896 -6.372514 7.673631 52.034151 -102.989503
Spine -48.173590 -10.280638 33.913222
Head -19.638056 38.485714 27.901206
LeftShoulder -26.734168 37.617389 29.852325
LeftArm 75.773585 -70.336332 -70.650835
LeftForeArm 15.993509 -0.000000 9.112757
LeftHand 7.622553 0.000000 16.203503
LeftHandThumb1 -26.253704 0.000000 33.147579
RightShoulder -24.266501 -4.820664 -29.420657
RightArm -22.735950 38.229467 20.585869
RightForeArm 57.137507 -0.000000 -1.544523
RightHand 3.701184 -0.000000 11.757255
RightHandThumb1 -24.326973 -0.000000 -32.862282
LeftUpLeg -95.849848 42.668255 16.178433
LeftLeg -16.764551 -0.000000 0.000000
LeftFoot 11.859044 21.132479 4.179801
LeftToeBase -11.261596 -0.000000 0.000000
RightUpLeg 34.262486 21.346908 -15.764824
RightLeg 57.135882 -0.000000 -0.000000
RightFoot 54.830064 11.286771 0.262032
RightToeBase 7.237729 -0.000000 -0.000000
862
root -0.181063 33.692751 -6.390287 7.977123 52.020938 -102.651516
Spine -48.058090 -10.189972 33.740245
Head -19.762704 38.565961 27.777625
LeftShoulder -26.761519 37.634097 29.817612
LeftArm 76.300816 -70.542830 -71.229609
LeftForeArm 16.121563 -0.000000 9.438524
LeftHand 7.603714 0.000000 16.191026
LeftHandThumb1 -26.253704 0.000000 33.147579
RightShoulder -24.178196 -4.707238 -29.576372
RightArm -23.280239 38.316453 20.393164
RightForeArm 56.973732 -0.000000 -1.389796
RightHand 3.643599 -0.000000 11.820385
RightHandThumb1 -24.326973 -0.000000 -32.862282
LeftUpLeg -95.574595 42.710492 16.371704
LeftLeg -16.845540 -0.000000 0.000000
LeftFoot 11.909709 21.312353 4.391316
LeftToeBase -11.329752 -0.000000 0.000000
RightUpLeg 34.227520 21.419965 -15.858694
RightLeg 57.253580 -0.000000 -0.000000
RightFoot 54.810518 11.346719 0.290265
RightToeBase 7.342745 -0.000000 -0.000000
863
root -0.202148 33.690430 -6.408206 8.190941 52.008873 -102.389919
Spine -47.888879 -10.120123 33.618896
Head -19.936097 38.630534 27.632027
LeftShoulder -26.813364 37.644066 29.809667
LeftArm 76.713033 -70.705695 -71.760670
LeftForeArm 16.276083 -0.000000 9.799322
LeftHand 7.566714 -0.000000 16.322772
LeftHandThumb1 -26.253704 0.000000 33.147579
RightShoulder -24.150394 -4.665712 -29.661590
RightArm -23.632747 38.432818 20.279327
RightForeArm 56.863580 -0.000000 -1.303733
RightHand 3.591771 0.000000 11.955397
RightHandThumb1 -24.326973 -0.000000 -32.862282
LeftUpLeg -95.311081 42.745040 16.606781
LeftLeg -16.869189 -0.000000 0.000000
LeftFoot 11.853320 21.490434 4.492335
LeftToeBase -11.227070 -0.000000 0.000000
RightUpLeg 34.220213 21.495181 -15.898813
RightLeg 57.377601 -0.000000 -0.000000
RightFoot 54.806333 11.348366 0.278918
RightToeBase 7.323737 -0.000000 -0.000000
864
root -0.219702 33.688788 -6.428120 8.535076 52.013063 -102.000074
Spine -47.769680 -10.073452 33.431152
Head -20.106957 38.784438 27.490320
LeftShoulder -26.858125 37.574221 29.822461
LeftArm 76.774284 -70.838125 -71.947128
LeftForeArm 16.476140 -0.000000 10.225533
LeftHand 7.508482 -0.000000 16.481695
LeftHandThumb1 -26.253704 0.000000 33.147579
RightShoulder -24.156443 -4.749942 -29.642272
RightArm -23.772971 38.504758 20.287041
RightForeArm 56.856649 -0.000000 -1.286644
RightHand 3.644974 -0.000000 11.931926
RightHandThumb1 -24.326973 -0.000000 -32.862282
LeftUpLeg -95.145849 42.733690 16.640596
LeftLeg -16.896870 -0.000000 0.000000
LeftFoot 11.824298 21.617699 4.666338
LeftToeBase -11.294613 -0.000000 0.000000
RightUpLeg 34.179350 21.518700 -16.054469
RightLeg 57.505238 -0.000000 -0.000000
RightFoot 54.756125 11.412330 0.209936
RightToeBase 7.362709 -0.000000 -0.000000
865
root -0.235787 33.687303 -6.445665 8.805531 52.028664 -101.706501
Spine -47.661855 -10.007704 33.294376
Head -20.301757 38.843352 27.341868
LeftShoulder -26.912940 37.590344 29.804236
LeftArm 77.213363 -70.977696 -72.514536
LeftForeArm 16.670360 -0.000000 10.652991
LeftHand 7.497555 -0.000000 16.624302
LeftHandThumb1 -26.253704 0.000000 33.147579
RightShoulder -24.226562 -4.984317 -29.546056
RightArm -23.684658 38.577583 20.427681
RightForeArm 56.861559 -0.000000 -1.344378
RightHand 3.768592 -0.000000 11.810293
RightHandThumb1 -24.326973 -0.000000 -32.862282
LeftUpLeg -94.965569 42.725619 16.778476
LeftLeg -16.883570 -0.000000 0.000000
LeftFoot 11.716002 21.839359 4.788639
LeftToeBase -11.191282 -0.000000 0.000000
RightUpLeg 34.153544 21.546418 -16.112356
RightLeg 57.608723 -0.000000 -0.000000
RightFoot 54.717310 11.454725 0.149270
RightToeBase 7.530372 -0.000000 -0.000000
